<svg xmlns="http://www.w3.org/2000/svg" width="275.6" height="94" viewBox="0 0 275.6 94">
  <defs>
    <style>
      .ace4489d-ebd3-4e41-8620-28fada66e1b3 {
        fill: #2c5c46;
      }
    </style>
  </defs>
  <g>
    <path class="ace4489d-ebd3-4e41-8620-28fada66e1b3" d="M17.75,8.42c-.7-1.2-1.4-2.5-2.1-3.8L17.75,1c.1-.2.3-.2.6-.2h3.9a1.38,1.38,0,0,0,.3.4c.6,1,1.1,2,1.7,3a.61.61,0,0,1,0,.8c-.6,1-1.2,2.1-1.8,3.1a.55.55,0,0,1-.5.3A19.66,19.66,0,0,1,17.75,8.42Z"/>
    <path class="ace4489d-ebd3-4e41-8620-28fada66e1b3" d="M81.45,92.82c-.2,0-.4-.1-.6-.1H68.45c-3.4,0-6.8-.1-10.2-.1h-7.4c-1.1,0-2.2-.1-3.4-.1l-6.3-11.1c.9-.3,1.8-.5,2.6-.7s1.6-.4,2.5-.6a1.24,1.24,0,0,0,.8-.6c2.8-4.5,5.6-9,8.4-13.6.1-.2.2-.3.3-.5,2.9.2,5-1,5.8-3.4a5.12,5.12,0,1,0-9.2,1.1c-2.5,4-4.9,7.9-7.3,11.8-.1.1-.2.2-.2.3a2.44,2.44,0,0,1-2,1.5c-1.1.2-2.2.6-3.3.9-.2,0-.3.1-.5.1-4.2-7.3-8.3-14.6-12.5-22,1.5-2.6,3.1-5.2,4.6-7.8H38a.87.87,0,0,0,.9-.5c2.9-4.9,5.8-9.9,8.7-14.8.1-.1.1-.2.2-.4-1.2-2.1-2.4-4.3-3.6-6.4.8-1.3,1.5-2.6,2.3-3.9.5-.8.9-1.6,1.4-2.4a.6.6,0,0,1,.6-.3h6.9c.6,1.1,1.2,2.2,1.8,3.2.9,1.7,1.9,3.3,2.8,5a.87.87,0,0,0,.9.5h8.8c2.2,0,4.3,0,6.5.1a1,1,0,0,0,1-.6c1.4-2.5,2.9-5,4.4-7.5a2.09,2.09,0,0,1,.4-.6h8.6c2.4,4.3,4.8,8.5,7.3,12.8-3.3,5-6.5,9.9-9.7,14.8a5.43,5.43,0,0,0-5.4,4,5.18,5.18,0,0,0,2.5,5.6,5.13,5.13,0,0,0,6.5-7.7c2.8-4.2,5.5-8.4,8.4-12.8l11.4,20.1c-3.8,6.4-7.5,12.8-11.3,19.2l-.6-.3c-5.4-3.6-10.8-7.2-16.1-10.8-2-1.4-4.1-2.7-6.1-4.1a1.24,1.24,0,0,1-.6-.8c-.9-3.3-1.7-6.5-2.6-9.8a1,1,0,0,0-.5-.6c-2.7-1.7-5.5-3.4-8.2-5.2-.1-.1-.2-.2-.3-.2v-1.6a5.21,5.21,0,0,0-4.1-4.4,5.15,5.15,0,1,0-1.1,10.2,4.84,4.84,0,0,0,2.6-.7.64.64,0,0,1,.6,0c2.2,1.4,4.4,2.9,6.7,4.3a1.78,1.78,0,0,1,.8,1.1c.8,3.1,1.6,6.2,2.4,9.2a1.78,1.78,0,0,0,.8,1.1c7.9,5.2,15.7,10.5,23.5,15.7.2.1.4.3.6.4-2,3.3-3.9,6.6-5.8,9.9-.5-.1-18.1-11.4-19.7-12.5a5.38,5.38,0,0,0-1-3.3,4.82,4.82,0,0,0-2.9-1.9,5.15,5.15,0,0,0-4.8,8.7,4.93,4.93,0,0,0,6.8.2c6.5,4.1,12.9,8.3,19.4,12.5v.4Z"/>
    <path class="ace4489d-ebd3-4e41-8620-28fada66e1b3" d="M259.25,37c0,.1-.1.3-.1.4a15,15,0,0,1-7.6,12.3,18.79,18.79,0,0,1-7,2.4c-1.1.1-2.2.2-3.3.2h-15.5v9.5c-.5.1-9,.2-9.8,0V18.62h25.4a18.65,18.65,0,0,1,9.2,2.2,15.82,15.82,0,0,1,7.4,8.1,12.63,12.63,0,0,1,1.1,5.1c0,.1.1.2.1.3A23.48,23.48,0,0,1,259.25,37Zm-33.4,6.3h.4c5.2,0,10.4,0,15.6-.1a8.08,8.08,0,0,0,3.4-.8,6.86,6.86,0,0,0,4-4.9,9.65,9.65,0,0,0,.1-3.4,7.14,7.14,0,0,0-3.6-5.4,9.29,9.29,0,0,0-4.6-1.2h-15.3Z"/>
    <path class="ace4489d-ebd3-4e41-8620-28fada66e1b3" d="M117.35,61.82V18.62h25.4a19.3,19.3,0,0,1,9.1,2.1,15.41,15.41,0,0,1,8.2,10.1,18.1,18.1,0,0,1-.6,11.5,15.25,15.25,0,0,1-6.9,7.7,19,19,0,0,1-7.7,2.2c-.6,0-1.3.1-1.9.1h-15.6v9.5C126.35,61.92,117.75,61.92,117.35,61.82Zm9.7-18.5h6c3.4,0,6.7,0,10.1-.1a8.52,8.52,0,0,0,2.3-.4,6.61,6.61,0,0,0,4.9-4.9,9,9,0,0,0,.2-4,7.24,7.24,0,0,0-3.9-5.5,9,9,0,0,0-4.2-1h-15.3C127.05,32.92,127.05,38.12,127.05,43.32Z"/>
    <path class="ace4489d-ebd3-4e41-8620-28fada66e1b3" d="M209.75,18.72v8.7h-17.5c-.1,1.5,0,2.9,0,4.4v30c-.5.1-9.1.2-9.8,0V27.42H165v-8.7C165.25,18.62,209.05,18.52,209.75,18.72Z"/>
    <path class="ace4489d-ebd3-4e41-8620-28fada66e1b3" d="M143,71.42c-.8,1.3-1.7,2.6-2.6,3.9-.6-.4-1.2-.7-1.9-1.1a11.62,11.62,0,0,0-5.2-1.5c-1.3-.1-2.6-.1-3.8-.1a6.71,6.71,0,0,0-2.8.6,2.73,2.73,0,0,0-1.2.9,1.58,1.58,0,0,0,.7,2.3,6.47,6.47,0,0,0,1.3.4c1.1.2,2.2.3,3.3.4,2,.2,4,.4,6,.8a9.83,9.83,0,0,1,4.6,1.9,6.86,6.86,0,0,1,1.9,6.8,7.05,7.05,0,0,1-3.3,4.1,14.17,14.17,0,0,1-5.3,1.6,22,22,0,0,1-4.4.2,19.36,19.36,0,0,1-10.9-3.5,1.38,1.38,0,0,0-.4-.3c.8-1.4,1.7-2.7,2.5-4.2a2.51,2.51,0,0,0,.7.4,17.1,17.1,0,0,0,13.2,2.4,4.29,4.29,0,0,0,2.3-1.2,1.87,1.87,0,0,0-.7-3.1,15.52,15.52,0,0,0-2.1-.4c-2.4-.3-4.8-.5-7.1-.8a14.35,14.35,0,0,1-4.2-1,5.91,5.91,0,0,1-3.6-5.5,7.58,7.58,0,0,1,.5-3,7.6,7.6,0,0,1,3.2-3.2,12.17,12.17,0,0,1,4.6-1.3,26.75,26.75,0,0,1,4.9-.1,17.35,17.35,0,0,1,9.3,3.2c.1,0,.1.1.2.1C142.75,71.32,142.85,71.32,143,71.42Z"/>
    <path class="ace4489d-ebd3-4e41-8620-28fada66e1b3" d="M175.25,80.32a14,14,0,0,1,1.1-5.3,11.61,11.61,0,0,1,3.5-4.4,13.84,13.84,0,0,1,7.6-2.8,14.6,14.6,0,0,1,7.7,1.5,11.74,11.74,0,0,1,6.5,9,11.89,11.89,0,0,1-3.2,10.3,12.56,12.56,0,0,1-6.1,3.5,13.84,13.84,0,0,1-4.5.5,13.68,13.68,0,0,1-8.4-3.2,11.36,11.36,0,0,1-4-7A7.49,7.49,0,0,1,175.25,80.32Zm21-.1v-.6a7,7,0,0,0-3.9-6.2,8.29,8.29,0,0,0-7.2-.3,7,7,0,0,0-4.1,4.3,8.64,8.64,0,0,0-.3,4.5,6.8,6.8,0,0,0,3.8,5.2,8.41,8.41,0,0,0,6.6.5,6.38,6.38,0,0,0,4.2-3.3A7.47,7.47,0,0,0,196.25,80.22Z"/>
    <path class="ace4489d-ebd3-4e41-8620-28fada66e1b3" d="M211,86.82V92h-5.3c-.1-.4-.1-22.9,0-23.6h13.8a10.14,10.14,0,0,1,5.4,1.4,8.39,8.39,0,0,1,4.2,6,9.56,9.56,0,0,1-.4,5.3,8.22,8.22,0,0,1-5.8,5.2,12.57,12.57,0,0,1-3.3.5H211Zm0-5h.2c2.9,0,5.8.1,8.7,0a3.71,3.71,0,0,0,3.9-3.2,4.22,4.22,0,0,0-1.3-4.2,4.3,4.3,0,0,0-3-1.1h-8.1a.9.9,0,0,0-.5.1C211,76.22,211,78.92,211,81.82Z"/>
    <path class="ace4489d-ebd3-4e41-8620-28fada66e1b3" d="M171.35,92h-5.3v-9.7c-.5-.1-12.3-.2-13.3-.1v9.7h-5.4V68.32h5.3a16.15,16.15,0,0,1,0,2.2v6.8H166v-9h5.3C171.35,76.22,171.35,84.12,171.35,92Z"/>
    <path class="ace4489d-ebd3-4e41-8620-28fada66e1b3" d="M23.85,23.12h10.4l5.1,9c-1.7,2.9-3.5,5.9-5.2,8.8h-7a24.32,24.32,0,0,0-2.7,0,.87.87,0,0,1-.9-.5c-1.2-2.2-2.5-4.4-3.7-6.6-.4-.6-.7-1.2-1.1-1.9C20.45,29,22.15,26.12,23.85,23.12Z"/>
    <path class="ace4489d-ebd3-4e41-8620-28fada66e1b3" d="M247.05,92h-5.3v-5.3a2.28,2.28,0,0,0-.3-1.1c-2.3-3.7-4.6-7.3-6.8-11-1.2-2-2.5-4-3.7-6,0-.1-.1-.1-.1-.3.2,0,.3-.1.4-.1h5.2a.67.67,0,0,1,.7.4c2.3,3.8,4.6,7.7,6.9,11.5.1.1.2.3.3.4q.3.6.6,0c.5-.8.9-1.5,1.3-2.3,1.9-3.2,3.7-6.4,5.6-9.6a.68.68,0,0,1,.6-.4h5.6a.31.31,0,0,1,.2.1,2.19,2.19,0,0,1-.3.5c-2.9,4.7-5.9,9.3-8.8,14-.6.9-1.2,1.9-1.8,2.8a1.61,1.61,0,0,0-.3.9V92Z"/>
    <path class="ace4489d-ebd3-4e41-8620-28fada66e1b3" d="M64.35,6.62h8.4c1.4,2.4,2.7,4.8,4.1,7.3l-4.2,7.2H65a.87.87,0,0,1-.9-.5c-1.2-2.1-2.4-4.3-3.6-6.4a.82.82,0,0,1-.1-.7c1.3-2.2,2.6-4.5,4-6.7Z"/>
    <path class="ace4489d-ebd3-4e41-8620-28fada66e1b3" d="M45.85,7.62c-1.2,2-2.4,4.1-3.6,6.1-2.3,0-4.7-.1-7.1-.1-1.2-2-2.3-4.1-3.5-6.1.3-.6.7-1.1,1-1.7.8-1.3,1.6-2.7,2.4-4a.67.67,0,0,1,.7-.4h6.3c.3,0,.4.1.6.4C43.65,3.72,44.75,5.62,45.85,7.62Z"/>
    <path class="ace4489d-ebd3-4e41-8620-28fada66e1b3" d="M60,44.72a2.05,2.05,0,0,1-2.1-2.1,2.18,2.18,0,0,1,2.1-2.1,2,2,0,0,1,2.1,2.1A2,2,0,0,1,60,44.72Z"/>
    <path class="ace4489d-ebd3-4e41-8620-28fada66e1b3" d="M58.75,60.12a2,2,0,0,1-2.1,2.1,2,2,0,0,1-2.1-2.1,2.1,2.1,0,0,1,4.2,0Z"/>
    <path class="ace4489d-ebd3-4e41-8620-28fada66e1b3" d="M67.35,78a2.1,2.1,0,1,1,2.1-2.1A2.05,2.05,0,0,1,67.35,78Z"/>
    <path class="ace4489d-ebd3-4e41-8620-28fada66e1b3" d="M89.65,52.12a2.05,2.05,0,0,1-2.1,2.1,2,2,0,0,1-2.1-2,2.22,2.22,0,0,1,2.2-2.2A2,2,0,0,1,89.65,52.12Z"/>
  </g>
</svg>
